<svg id="Layer_1" data-name="Layer 1" xmlns="http://www.w3.org/2000/svg" viewBox="0 0 150 53"><defs><style>.cls-1{fill:#010201;}.cls-2{fill:#1d429c;}.cls-3{fill:#f15b2b;}</style></defs><title>Direct Capital Group logo (updated 2024)</title><path class="cls-1" d="M16.08,38l-0.12.1a4.6,4.6,0,0,1-2.5.7h-6a1.43,1.43,0,0,1-1.09-.45A1.49,1.49,0,0,1,6,37.28a1.52,1.52,0,0,1,.45-1.13,1.45,1.45,0,0,1,1.09-.47H7.82v0h5.55a1.52,1.52,0,0,0,1.11-.45l1,1.89A4.17,4.17,0,0,0,16.08,38Z"/><path class="cls-1" d="M28,15.74a1.5,1.5,0,0,1-.45,1.11,1.45,1.45,0,0,1-1.09.47H20.55a1.2,1.2,0,0,0-.9.43l-0.76-1.54A5.51,5.51,0,0,0,18.07,15s0.1-.06.14-0.1a3.76,3.76,0,0,1,2.11-.72h6.17a1.41,1.41,0,0,1,1.09.47A1.43,1.43,0,0,1,28,15.74Z"/><path class="cls-2" d="M15.45,37.16l-1-1.89a1.52,1.52,0,0,1-1.11.45H7.82v0H7.5a1.45,1.45,0,0,0-1.09.47A1.52,1.52,0,0,0,6,37.28a1.49,1.49,0,0,0,.45,1.09,1.43,1.43,0,0,0,1.09.45h6a4.6,4.6,0,0,0,2.5-.7l0.12-.1A4.17,4.17,0,0,1,15.45,37.16Z"/><path class="cls-2" d="M32.4,41.91H1.59V11.09H32.4V41.91ZM3.52,40H30.47V13H3.52V40Z"/><path class="cls-2" d="M21.68,26.54a7.5,7.5,0,0,1-.92,3.51l-1.25,2.46-1.78-3.44L18,28.57a4.87,4.87,0,0,0,.57-2,4.06,4.06,0,0,0-.45-1.91l-0.37-.72L17,22.5,15.32,19l-0.39-.78a2.12,2.12,0,0,0-.41-0.51,1.72,1.72,0,0,0-1.23-.43H7.56a1.46,1.46,0,0,1-1.11-.47A1.52,1.52,0,0,1,6,15.74a1.45,1.45,0,0,1,.47-1.09,1.39,1.39,0,0,1,1.11-.47h6.15a4.06,4.06,0,0,1,2.34.78L16.14,15a5.13,5.13,0,0,1,1,.84,6,6,0,0,1,.62.94l1.13,2.28,0.7,1.43L20.82,23A7.72,7.72,0,0,1,21.68,26.54Z"/><path class="cls-3" d="M27.58,14.65a1.41,1.41,0,0,0-1.09-.47H20.31a3.76,3.76,0,0,0-2.11.72s-0.1.06-.14,0.1a5.51,5.51,0,0,1,.82,1.21l0.76,1.54a1.2,1.2,0,0,1,.9-0.43h5.94a1.45,1.45,0,0,0,1.09-.47A1.5,1.5,0,0,0,28,15.74,1.43,1.43,0,0,0,27.58,14.65Z"/><path class="cls-3" d="M28,37.28a1.4,1.4,0,0,1-.49,1.09,1.5,1.5,0,0,1-1.11.45H20.53a4.49,4.49,0,0,1-2.28-.7A0.81,0.81,0,0,1,18,38a4.25,4.25,0,0,1-1-.8,5.45,5.45,0,0,1-.45-0.62L15.26,34l-0.72-1.41L13,29.6a7.08,7.08,0,0,1-.72-3.1,6.11,6.11,0,0,1,.68-3l1.62-3.07,1.72,3.46-0.41.76a3.75,3.75,0,0,0-.41,1.8,4.17,4.17,0,0,0,.45,2l0.35,0.68L17,30.5l1.8,3.44,0.41,0.78a1.59,1.59,0,0,0,.37.55,1.51,1.51,0,0,0,1.15.45h5.62a1.58,1.58,0,0,1,1.11.45A1.44,1.44,0,0,1,28,37.28Z"/><path class="cls-2" d="M41.25,27.73V21.39h2a4.81,4.81,0,0,1,1.71.25,2.38,2.38,0,0,1,1.14.68,2.32,2.32,0,0,1,.61,1,3.33,3.33,0,0,1,.21,1.21,3.09,3.09,0,0,1-1,2.35,3.87,3.87,0,0,1-2.81.89H41.25Zm2-5H42.64v3.71h0.61c1.46,0,2.21-.64,2.21-1.92S44.7,22.71,43.24,22.71Z"/><rect class="cls-2" x="47.8" y="21.39" width="1.43" height="6.38"/><path class="cls-2" d="M51.86,27.73H50.44V21.39H53a4.2,4.2,0,0,1,1.25.18,2.25,2.25,0,0,1,.82.46,3.1,3.1,0,0,1,.39.64,2.78,2.78,0,0,1,.11.78,2.12,2.12,0,0,1-.32,1.14,1.87,1.87,0,0,1-.93.71l1.78,2.42H54.39l-1.53-2.17h-1v2.17Zm1.1-5h-1.1v1.53H53a1.22,1.22,0,0,0,.78-0.18,0.78,0.78,0,0,0,0-1.18A1.67,1.67,0,0,0,53,22.71Z"/><polygon class="cls-2" points="56.71 27.73 56.71 21.39 61.55 21.39 61.55 22.71 58.1 22.71 58.1 23.89 61.3 23.89 61.3 25.17 58.1 25.17 58.1 26.41 61.63 26.41 61.63 27.73 56.71 27.73"/><path class="cls-2" d="M67.36,25.63l0.86,0.93a3.35,3.35,0,0,1-1.14,1,3.86,3.86,0,0,1-1.57.32,3.06,3.06,0,0,1-2.35-.89,3.2,3.2,0,0,1-.89-2.39,3.14,3.14,0,0,1,.89-2.32,3.22,3.22,0,0,1,2.39-1,3.57,3.57,0,0,1,1.53.32,2.55,2.55,0,0,1,1,.89l-1,.86a2.05,2.05,0,0,0-.68-0.53,2.43,2.43,0,0,0-.82-0.18A2,2,0,0,0,64.26,26a1.85,1.85,0,0,0,1.35.53A2.1,2.1,0,0,0,67.36,25.63Z"/><polygon class="cls-2" points="68.47 22.71 68.47 21.39 73.95 21.39 73.95 22.71 71.92 22.71 71.92 27.73 70.5 27.73 70.5 22.71 68.47 22.71"/><path class="cls-2" d="M81.47,25.63l0.86,0.93a3.35,3.35,0,0,1-1.14,1,3.86,3.86,0,0,1-1.57.32,3.2,3.2,0,0,1-2.39-.89,3.32,3.32,0,0,1-.86-2.39,3.14,3.14,0,0,1,.89-2.32,3.22,3.22,0,0,1,2.39-1,3.57,3.57,0,0,1,1.53.32,2.55,2.55,0,0,1,1,.89l-1,.86a2.05,2.05,0,0,0-.68-0.53,2.43,2.43,0,0,0-.82-0.18,1.77,1.77,0,0,0-1.39.53,2.07,2.07,0,0,0,0,2.78,1.85,1.85,0,0,0,1.35.53A2.1,2.1,0,0,0,81.47,25.63Z"/><path class="cls-2" d="M82.15,27.73l2.74-6.34H86l2.78,6.34H87.28l-0.5-1.18H84.11l-0.53,1.18H82.15Zm3.28-4.28L84.6,25.38h1.64Z"/><path class="cls-2" d="M90.7,27.73H89.31V21.39h2.64a4.91,4.91,0,0,1,1.32.18,2,2,0,0,1,.82.53,2,2,0,0,1,.43.68,2.78,2.78,0,0,1,.11.78A2.15,2.15,0,0,1,94,25.13a2.94,2.94,0,0,1-2,.61H90.7v2Zm1.28-5H90.7v1.71h1.21c0.82,0,1.25-.29,1.25-0.86S92.76,22.71,92,22.71Z"/><rect class="cls-2" x="95.47" y="21.39" width="1.43" height="6.38"/><polygon class="cls-2" points="97.54 22.71 97.54 21.39 102.99 21.39 102.99 22.71 100.96 22.71 100.96 27.73 99.57 27.73 99.57 22.71 97.54 22.71"/><path class="cls-2" d="M102.1,27.73l2.78-6.34h1.07l2.74,6.34h-1.43l-0.53-1.18h-2.67l-0.5,1.18H102.1Zm3.31-4.28-0.82,1.92h1.64Z"/><polygon class="cls-2" points="109.26 27.73 109.26 21.39 110.68 21.39 110.68 26.41 114.1 26.41 114.1 27.73 109.26 27.73"/><path class="cls-2" d="M119.34,25.45V24.17h3v2.57a3.21,3.21,0,0,1-1.14.82,3.29,3.29,0,0,1-1.43.29,3.51,3.51,0,0,1-2.49-.89,3.11,3.11,0,0,1-1-2.39,3.17,3.17,0,0,1,.93-2.32,3.09,3.09,0,0,1,2.35-1,3.57,3.57,0,0,1,1.53.32,2.22,2.22,0,0,1,1,.82l-1,.86a2,2,0,0,0-1.53-.64,1.78,1.78,0,0,0-1.89,1.92,1.8,1.8,0,0,0,.57,1.43,2.26,2.26,0,0,0,2.64.14V25.45h-1.6Z"/><path class="cls-2" d="M124.65,27.73h-1.43V21.39h2.57a4.2,4.2,0,0,1,1.25.18,2.25,2.25,0,0,1,.82.46,2.07,2.07,0,0,1,.39.64,2.78,2.78,0,0,1,.11.78A2.12,2.12,0,0,1,128,24.6a1.87,1.87,0,0,1-.93.71l1.78,2.42h-1.71l-1.53-2.17h-1v2.17Zm1.1-5h-1.1v1.53h1.18a1.22,1.22,0,0,0,.78-0.18,0.78,0.78,0,0,0,0-1.18A1.67,1.67,0,0,0,125.75,22.71Z"/><path class="cls-2" d="M129,24.56a3.22,3.22,0,0,1,3.28-3.28,3.28,3.28,0,1,1,0,6.56A3.22,3.22,0,0,1,129,24.56Zm2-1.39A2.07,2.07,0,0,0,131,26a1.81,1.81,0,0,0,2.57,0,1.86,1.86,0,0,0,.5-1.39,1.88,1.88,0,0,0-.53-1.39,1.73,1.73,0,0,0-1.25-.53A1.75,1.75,0,0,0,131,23.17Z"/><path class="cls-2" d="M141.86,21.39V25a3,3,0,0,1-.14,1,2,2,0,0,1-.43.78,2.34,2.34,0,0,1-.61.57,1.77,1.77,0,0,1-.71.29,3,3,0,0,1-.78.11,2.86,2.86,0,0,1-2-.75,2.71,2.71,0,0,1-.82-2.1V21.39h1.39v3.42a1.83,1.83,0,0,0,.39,1.21,1.26,1.26,0,0,0,1.07.46c0.86,0,1.28-.53,1.28-1.64V21.39h1.39Z"/><path class="cls-2" d="M144.35,27.73H143V21.39h2.6a5,5,0,0,1,1.35.18,2,2,0,0,1,.82.53,2,2,0,0,1,.43.68,2.78,2.78,0,0,1,.11.78,2.15,2.15,0,0,1-.64,1.57,3,3,0,0,1-2.07.61h-1.21v2Zm1.28-5h-1.28v1.71h1.21c0.82,0,1.25-.29,1.25-0.86S146.42,22.71,145.63,22.71Z"/><path class="cls-2" d="M148.41,30.94c-34.34.39-72.89,0.39-107.24,0C75.52,30.55,114.07,30.55,148.41,30.94Z"/><polygon class="cls-3" points="68.07 34.68 66.97 34.68 66.97 37.99 66.33 37.99 66.33 34.68 65.22 34.68 65.22 34.11 68.07 34.11 68.07 34.68"/><path class="cls-3" d="M70.21,38.06a1.74,1.74,0,0,1-1.35-.53,2,2,0,0,1-.5-1.43,2.16,2.16,0,0,1,.5-1.5A1.91,1.91,0,0,1,70.25,34a1.58,1.58,0,0,1,1.32.57,1.86,1.86,0,0,1,.5,1.39,2.16,2.16,0,0,1-.5,1.5A1.7,1.7,0,0,1,70.21,38.06Zm0-3.46a1.08,1.08,0,0,0-.86.39A1.73,1.73,0,0,0,69,36.07a1.56,1.56,0,0,0,.32,1,1.08,1.08,0,0,0,.86.39,1.06,1.06,0,0,0,.86-0.36,1.6,1.6,0,0,0,.32-1.07A1.82,1.82,0,0,0,71.1,35,1.11,1.11,0,0,0,70.21,34.61Z"/><path class="cls-3" d="M75.8,37.74a2.81,2.81,0,0,1-1.35.32,1.88,1.88,0,0,1-1.39-.53,2.11,2.11,0,0,1,.07-2.89A2,2,0,0,1,74.59,34a2.66,2.66,0,0,1,1.1.21v0.64a2.18,2.18,0,0,0-1.07-.29,1.49,1.49,0,0,0-1,.39,1.58,1.58,0,0,0-.39,1.07,1.49,1.49,0,0,0,.36,1.07,1.16,1.16,0,0,0,.93.36,1.36,1.36,0,0,0,.68-0.14V36.43H74.34V35.89H75.8v1.85Z"/><polygon class="cls-3" points="78.83 37.99 76.66 37.99 76.66 34.11 78.73 34.11 78.73 34.68 77.3 34.68 77.3 35.75 78.62 35.75 78.62 36.32 77.3 36.32 77.3 37.46 78.83 37.46 78.83 37.99"/><polygon class="cls-3" points="82 34.68 80.9 34.68 80.9 37.99 80.26 37.99 80.26 34.68 79.12 34.68 79.12 34.11 82 34.11 82 34.68"/><polygon class="cls-3" points="85.67 37.99 85.03 37.99 85.03 36.32 83.22 36.32 83.22 37.99 82.57 37.99 82.57 34.11 83.22 34.11 83.22 35.75 85.03 35.75 85.03 34.11 85.67 34.11 85.67 37.99"/><polygon class="cls-3" points="88.81 37.99 86.64 37.99 86.64 34.11 88.74 34.11 88.74 34.68 87.28 34.68 87.28 35.75 88.63 35.75 88.63 36.32 87.28 36.32 87.28 37.46 88.81 37.46 88.81 37.99"/><path class="cls-3" d="M92.51,38H91.77l-0.64-1A1.55,1.55,0,0,0,91,36.71l-0.18-.18a0.27,0.27,0,0,0-.18-0.07,0.45,0.45,0,0,0-.21,0H90.16V38H89.52V34.11h1.25a2.42,2.42,0,0,1,.53.07,0.85,0.85,0,0,1,.39.21,0.78,0.78,0,0,1,.25.32,0.89,0.89,0,0,1,.11.46,1.27,1.27,0,0,1-.07.36,0.73,0.73,0,0,1-.18.32,1.55,1.55,0,0,1-.25.21,1.07,1.07,0,0,1-.36.14v0a0.78,0.78,0,0,1,.18.11,0.54,0.54,0,0,0,.14.14c0,0.07.11,0.11,0.14,0.18a1.55,1.55,0,0,1,.14.25Zm-2.35-3.35v1.25H90.7a0.61,0.61,0,0,0,.25,0,0.33,0.33,0,0,0,.21-0.14,0.24,0.24,0,0,0,.14-0.21,0.66,0.66,0,0,0,.07-0.25,0.62,0.62,0,0,0-.18-0.46,0.7,0.7,0,0,0-.5-0.14H90.16Z"/><polygon class="cls-3" points="93.47 37.35 93.05 38.71 92.58 38.71 92.87 37.35 93.47 37.35"/><path class="cls-3" d="M100.64,34.11L99.57,38H98.82l-0.71-2.71A1.28,1.28,0,0,1,98,34.89a1.52,1.52,0,0,1-.07.39L97.22,38H96.47L95.4,34.11h0.71L96.79,37a1.27,1.27,0,0,1,.07.36A3.09,3.09,0,0,0,96.93,37l0.82-2.85h0.64L99.14,37c0,0.07,0,.21.07,0.32A2.05,2.05,0,0,1,99.28,37L100,34.11h0.68Z"/><polygon class="cls-3" points="103.34 37.99 101.17 37.99 101.17 34.11 103.24 34.11 103.24 34.68 101.81 34.68 101.81 35.75 103.13 35.75 103.13 36.32 101.81 36.32 101.81 37.46 103.34 37.46 103.34 37.99"/><path class="cls-3" d="M108.58,37.74a2.81,2.81,0,0,1-1.35.32,1.88,1.88,0,0,1-1.39-.53,1.91,1.91,0,0,1-.53-1.43,1.88,1.88,0,0,1,.57-1.46,2,2,0,0,1,1.5-.61,2.38,2.38,0,0,1,1.07.21v0.64a2,2,0,0,0-1-.29,1.43,1.43,0,0,0-1,.39,1.58,1.58,0,0,0-.39,1.07,1.49,1.49,0,0,0,.36,1.07,1.13,1.13,0,0,0,.89.36,1.5,1.5,0,0,0,.71-0.14V36.43h-0.82V35.89h1.46v1.85Z"/><path class="cls-3" d="M111,38.06a1.72,1.72,0,0,1-1.32-.53,2.26,2.26,0,0,1,0-2.92,1.79,1.79,0,0,1,1.39-.57,1.63,1.63,0,0,1,1.32.57,2,2,0,0,1,.5,1.39,2.16,2.16,0,0,1-.5,1.5A1.78,1.78,0,0,1,111,38.06Zm0-3.46a1.08,1.08,0,0,0-.86.39,1.8,1.8,0,0,0,0,2.1,1.14,1.14,0,0,0,.86.39,1.08,1.08,0,0,0,.89-0.36,1.94,1.94,0,0,0,0-2.14A1.08,1.08,0,0,0,111,34.61Z"/><polygon class="cls-3" points="117.2 34.68 115.78 34.68 115.78 35.82 117.1 35.82 117.1 36.39 115.78 36.39 115.78 37.99 115.14 37.99 115.14 34.11 117.2 34.11 117.2 34.68"/><path class="cls-3" d="M120.87,38h-0.71l-0.36-1h-1.53L118,38h-0.71l1.46-3.88h0.71Zm-1.21-1.5-0.57-1.57a1.26,1.26,0,0,1,0-.25,1.1,1.1,0,0,1-.07.25l-0.53,1.57h1.21Z"/><path class="cls-3" d="M124.4,38h-0.75L123,37a1.55,1.55,0,0,0-.14-0.25l-0.18-.18a0.27,0.27,0,0,0-.18-0.07,0.45,0.45,0,0,0-.21,0H122V38h-0.64V34.11h1.28a2.41,2.41,0,0,1,.5.07,0.85,0.85,0,0,1,.39.21,0.57,0.57,0,0,1,.25.32,0.89,0.89,0,0,1,.11.46,0.64,0.64,0,0,1-.07.36,1.27,1.27,0,0,1-.14.32,2,2,0,0,1-.28.21,1.07,1.07,0,0,1-.36.14v0a0.78,0.78,0,0,1,.18.11l0.14,0.14a0.63,0.63,0,0,1,.14.18,1.51,1.51,0,0,1,.18.25ZM122,34.64v1.25h0.53a0.78,0.78,0,0,0,.28,0,0.75,0.75,0,0,0,.21-0.14,0.55,0.55,0,0,0,.14-0.21,0.61,0.61,0,0,0,0-.25,0.62,0.62,0,0,0-.18-0.46,0.7,0.7,0,0,0-.5-0.14H122Z"/></svg>